<mxfile host="Electron" modified="2024-06-03T13:29:36.540Z" agent="Mozilla/5.0 (Windows NT 10.0; Win64; x64) AppleWebKit/537.36 (KHTML, like Gecko) draw.io/22.1.11 Chrome/114.0.5735.289 Electron/25.9.8 Safari/537.36" etag="QF2HPRTP7yMvXa-ce_bG" version="22.1.11" type="device">
  <diagram name="Page-1" id="wvPpNDRXzR_e9DTpUC9u">
    <mxGraphModel dx="1750" dy="2204" grid="1" gridSize="10" guides="1" tooltips="1" connect="1" arrows="1" fold="1" page="1" pageScale="1" pageWidth="827" pageHeight="1169" math="0" shadow="0">
      <root>
        <mxCell id="0" />
        <mxCell id="1" parent="0" />
        <mxCell id="ut2fWujNcMR4I6lR4FxJ-16" value="" style="endArrow=none;dashed=1;html=1;dashPattern=1 3;strokeWidth=2;rounded=0;exitX=1;exitY=0.5;exitDx=0;exitDy=0;entryX=1;entryY=0.5;entryDx=0;entryDy=0;fillColor=#d5e8d4;strokeColor=#82b366;" edge="1" parent="1" source="ut2fWujNcMR4I6lR4FxJ-6" target="ut2fWujNcMR4I6lR4FxJ-29">
          <mxGeometry width="50" height="50" relative="1" as="geometry">
            <mxPoint x="330" y="-500" as="sourcePoint" />
            <mxPoint x="380" y="-550" as="targetPoint" />
          </mxGeometry>
        </mxCell>
        <mxCell id="ut2fWujNcMR4I6lR4FxJ-8" value="" style="edgeStyle=orthogonalEdgeStyle;rounded=0;orthogonalLoop=1;jettySize=auto;html=1;" edge="1" parent="1" source="Z6_RkC3qRt3mM1KhDwVT-1" target="ut2fWujNcMR4I6lR4FxJ-3">
          <mxGeometry relative="1" as="geometry" />
        </mxCell>
        <mxCell id="Z6_RkC3qRt3mM1KhDwVT-1" value="Serveur" style="rounded=1;whiteSpace=wrap;html=1;fillColor=#99FF99;strokeColor=#82b366;fontColor=#000000;labelBackgroundColor=none;" parent="1" vertex="1">
          <mxGeometry x="180" y="-1140" width="60" height="30" as="geometry" />
        </mxCell>
        <mxCell id="ut2fWujNcMR4I6lR4FxJ-21" style="edgeStyle=orthogonalEdgeStyle;rounded=0;orthogonalLoop=1;jettySize=auto;html=1;entryX=0.5;entryY=0;entryDx=0;entryDy=0;" edge="1" parent="1" source="ut2fWujNcMR4I6lR4FxJ-1" target="ut2fWujNcMR4I6lR4FxJ-27">
          <mxGeometry relative="1" as="geometry">
            <mxPoint x="650" y="-850" as="targetPoint" />
            <Array as="points">
              <mxPoint x="466" y="-1070" />
              <mxPoint x="692" y="-1070" />
            </Array>
          </mxGeometry>
        </mxCell>
        <mxCell id="ut2fWujNcMR4I6lR4FxJ-22" style="edgeStyle=orthogonalEdgeStyle;rounded=0;orthogonalLoop=1;jettySize=auto;html=1;exitX=0.5;exitY=1;exitDx=0;exitDy=0;entryX=0.5;entryY=0;entryDx=0;entryDy=0;" edge="1" parent="1" source="ut2fWujNcMR4I6lR4FxJ-1" target="ut2fWujNcMR4I6lR4FxJ-23">
          <mxGeometry relative="1" as="geometry">
            <mxPoint x="540" y="-870" as="targetPoint" />
            <Array as="points">
              <mxPoint x="466" y="-1070" />
              <mxPoint x="582" y="-1070" />
            </Array>
          </mxGeometry>
        </mxCell>
        <mxCell id="ut2fWujNcMR4I6lR4FxJ-1" value="Client" style="rounded=1;whiteSpace=wrap;html=1;fillColor=#99FF99;strokeColor=#82b366;fontColor=#000000;labelBackgroundColor=none;" vertex="1" parent="1">
          <mxGeometry x="436" y="-1140" width="60" height="30" as="geometry" />
        </mxCell>
        <mxCell id="ut2fWujNcMR4I6lR4FxJ-2" value="" style="endArrow=classic;html=1;rounded=0;exitX=0.5;exitY=1;exitDx=0;exitDy=0;fontColor=#000000;labelBackgroundColor=none;entryX=0.5;entryY=0;entryDx=0;entryDy=0;" edge="1" parent="1" target="ut2fWujNcMR4I6lR4FxJ-15">
          <mxGeometry width="50" height="50" relative="1" as="geometry">
            <mxPoint x="466" y="-1110" as="sourcePoint" />
            <mxPoint x="466" y="-1040" as="targetPoint" />
          </mxGeometry>
        </mxCell>
        <mxCell id="ut2fWujNcMR4I6lR4FxJ-7" value="" style="edgeStyle=orthogonalEdgeStyle;rounded=0;orthogonalLoop=1;jettySize=auto;html=1;" edge="1" parent="1" source="ut2fWujNcMR4I6lR4FxJ-12" target="ut2fWujNcMR4I6lR4FxJ-6">
          <mxGeometry relative="1" as="geometry" />
        </mxCell>
        <mxCell id="ut2fWujNcMR4I6lR4FxJ-3" value="&lt;span style=&quot;font-family: Consolas, &amp;quot;Courier New&amp;quot;, monospace; font-size: 14px;&quot;&gt;etat_de_jeu = menu_jeu&lt;/span&gt;" style="rounded=0;whiteSpace=wrap;html=1;labelBackgroundColor=none;fillColor=#dae8fc;strokeColor=#6c8ebf;" vertex="1" parent="1">
          <mxGeometry x="150" y="-1040" width="120" height="60" as="geometry" />
        </mxCell>
        <mxCell id="ut2fWujNcMR4I6lR4FxJ-6" value="Page_Demarrage" style="shape=process;whiteSpace=wrap;html=1;backgroundOutline=1;fillColor=#ffe6cc;strokeColor=#d79b00;rounded=0;labelBackgroundColor=none;" vertex="1" parent="1">
          <mxGeometry x="140" y="-760" width="140" height="60" as="geometry" />
        </mxCell>
        <mxCell id="ut2fWujNcMR4I6lR4FxJ-13" value="" style="edgeStyle=orthogonalEdgeStyle;rounded=0;orthogonalLoop=1;jettySize=auto;html=1;" edge="1" parent="1" source="ut2fWujNcMR4I6lR4FxJ-3" target="ut2fWujNcMR4I6lR4FxJ-12">
          <mxGeometry relative="1" as="geometry">
            <mxPoint x="210" y="-990" as="sourcePoint" />
            <mxPoint x="210" y="-730" as="targetPoint" />
          </mxGeometry>
        </mxCell>
        <mxCell id="ut2fWujNcMR4I6lR4FxJ-14" style="edgeStyle=orthogonalEdgeStyle;rounded=0;orthogonalLoop=1;jettySize=auto;html=1;" edge="1" parent="1" source="ut2fWujNcMR4I6lR4FxJ-12">
          <mxGeometry relative="1" as="geometry">
            <mxPoint x="80.00000000000011" y="-60.000000000000455" as="targetPoint" />
          </mxGeometry>
        </mxCell>
        <mxCell id="ut2fWujNcMR4I6lR4FxJ-12" value="Tant que&amp;nbsp;&lt;br&gt;etat_de_jeu != fin_du_jeu" style="whiteSpace=wrap;html=1;fillColor=#fff2cc;strokeColor=#d6b656;shape=ellipse;perimeter=ellipsePerimeter;aspect=fixed;" vertex="1" parent="1">
          <mxGeometry x="115.94" y="-920" width="188.13" height="70" as="geometry" />
        </mxCell>
        <mxCell id="ut2fWujNcMR4I6lR4FxJ-30" style="edgeStyle=orthogonalEdgeStyle;rounded=0;orthogonalLoop=1;jettySize=auto;html=1;exitX=0.5;exitY=1;exitDx=0;exitDy=0;entryX=0.9;entryY=1.05;entryDx=0;entryDy=0;entryPerimeter=0;" edge="1" parent="1" source="ut2fWujNcMR4I6lR4FxJ-15" target="ut2fWujNcMR4I6lR4FxJ-6">
          <mxGeometry relative="1" as="geometry">
            <mxPoint x="330" y="-730" as="targetPoint" />
            <mxPoint x="470" y="-640" as="sourcePoint" />
            <Array as="points">
              <mxPoint x="466" y="-660" />
              <mxPoint x="270" y="-660" />
              <mxPoint x="270" y="-730" />
              <mxPoint x="266" y="-730" />
            </Array>
          </mxGeometry>
        </mxCell>
        <mxCell id="ut2fWujNcMR4I6lR4FxJ-15" value="&lt;font face=&quot;Consolas, Courier New, monospace&quot;&gt;&lt;span style=&quot;font-size: 14px;&quot;&gt;Clique sur la flÃ¨che retour&lt;/span&gt;&lt;/font&gt;" style="rounded=0;whiteSpace=wrap;html=1;labelBackgroundColor=none;fillColor=#e1d5e7;strokeColor=#9673a6;" vertex="1" parent="1">
          <mxGeometry x="424" y="-760" width="84" height="60" as="geometry" />
        </mxCell>
        <mxCell id="ut2fWujNcMR4I6lR4FxJ-23" value="&lt;font face=&quot;Consolas, Courier New, monospace&quot;&gt;&lt;span style=&quot;font-size: 14px;&quot;&gt;Clique sur le mode local&lt;/span&gt;&lt;/font&gt;" style="rounded=0;whiteSpace=wrap;html=1;labelBackgroundColor=none;fillColor=#e1d5e7;strokeColor=#9673a6;" vertex="1" parent="1">
          <mxGeometry x="540" y="-760" width="84" height="60" as="geometry" />
        </mxCell>
        <mxCell id="ut2fWujNcMR4I6lR4FxJ-27" value="&lt;font face=&quot;Consolas, Courier New, monospace&quot;&gt;&lt;span style=&quot;font-size: 14px;&quot;&gt;Clique sur le mode en ligne&lt;/span&gt;&lt;/font&gt;" style="rounded=0;whiteSpace=wrap;html=1;labelBackgroundColor=none;fillColor=#e1d5e7;strokeColor=#9673a6;" vertex="1" parent="1">
          <mxGeometry x="650" y="-760" width="84" height="60" as="geometry" />
        </mxCell>
        <mxCell id="ut2fWujNcMR4I6lR4FxJ-28" style="edgeStyle=orthogonalEdgeStyle;rounded=0;orthogonalLoop=1;jettySize=auto;html=1;entryX=0.5;entryY=0;entryDx=0;entryDy=0;exitX=0.5;exitY=1;exitDx=0;exitDy=0;" edge="1" parent="1" target="ut2fWujNcMR4I6lR4FxJ-29" source="ut2fWujNcMR4I6lR4FxJ-1">
          <mxGeometry relative="1" as="geometry">
            <mxPoint x="570" y="-1110" as="sourcePoint" />
            <mxPoint x="754" y="-850" as="targetPoint" />
            <Array as="points">
              <mxPoint x="466" y="-1070" />
              <mxPoint x="822" y="-1070" />
            </Array>
          </mxGeometry>
        </mxCell>
        <mxCell id="ut2fWujNcMR4I6lR4FxJ-29" value="&lt;font face=&quot;Consolas, Courier New, monospace&quot;&gt;&lt;span style=&quot;font-size: 14px;&quot;&gt;Clique sur la Page_Statistiques&lt;/span&gt;&lt;/font&gt;" style="rounded=0;whiteSpace=wrap;html=1;labelBackgroundColor=none;fillColor=#e1d5e7;strokeColor=#9673a6;" vertex="1" parent="1">
          <mxGeometry x="754" y="-760" width="136" height="60" as="geometry" />
        </mxCell>
      </root>
    </mxGraphModel>
  </diagram>
</mxfile>
